<svg width="65" height="44" viewBox="0 0 65 44" fill="none" xmlns="http://www.w3.org/2000/svg">
<path d="M45.4917 14.2617H17.9749C17.3978 14.2617 16.9288 14.7324 16.979 15.2855C17.5821 21.8703 23.9574 27.052 31.7324 27.052C39.5074 27.052 45.8826 21.8703 46.4857 15.2855C46.5378 14.7324 46.0688 14.2617 45.4917 14.2617Z" fill="#FF6633"/>
<path d="M26.7655 4.40841C26.4584 4.40841 26.1531 4.27596 25.9539 4.0218C24.9488 2.75101 23.039 1.95989 20.971 1.95989C18.903 1.95989 16.9932 2.74922 15.9881 4.0218C15.6475 4.45316 15.0071 4.53549 14.5604 4.20795C14.1118 3.88041 14.0262 3.2647 14.3668 2.83513C15.7703 1.05959 18.2385 0 20.971 0C23.7035 0 26.1717 1.05959 27.5771 2.83513C27.9177 3.26648 27.8302 3.88041 27.3835 4.20795C27.1974 4.34398 26.9814 4.40841 26.7655 4.40841Z" fill="#414141"/>
<path d="M48.2877 4.40841C47.9806 4.40841 47.6753 4.27596 47.4762 4.0218C46.471 2.75101 44.5612 1.95989 42.4932 1.95989C40.4252 1.95989 38.5155 2.74922 37.5103 4.0218C37.1697 4.45316 36.5294 4.53549 36.0826 4.20795C35.634 3.88041 35.5484 3.2647 35.889 2.83513C37.2925 1.05959 39.7607 0 42.4932 0C45.2258 0 47.6939 1.05959 49.0993 2.83513C49.4399 3.26648 49.3524 3.88041 48.9057 4.20795C48.7196 4.34398 48.5037 4.40841 48.2877 4.40841Z" fill="#414141"/>
<path d="M3.35197 30.0032L2.95178 31.0216C2.91641 31.1057 2.78797 31.1397 2.66885 31.0986C2.39708 31.0198 2.11601 30.8784 1.82192 30.6708C1.52968 30.4668 1.29887 30.2502 1.12762 30.0229C0.868886 29.6774 0.688332 29.3016 0.587817 28.9006C0.491025 28.4961 0.476134 28.1059 0.533837 27.7229C0.595263 27.3435 0.736728 26.9765 0.956371 26.6257C1.17788 26.2749 1.46267 25.976 1.82005 25.729C2.17558 25.482 2.56089 25.3138 2.97597 25.2225C3.39106 25.1312 3.79871 25.1169 4.19332 25.1813C4.59352 25.2458 4.97324 25.3836 5.33807 25.6002C5.70663 25.8149 6.0212 26.0977 6.27993 26.4432C6.4456 26.6651 6.5852 26.9461 6.69316 27.2808C6.80484 27.6155 6.86068 27.9287 6.85882 28.2223C6.86068 28.3404 6.7732 28.4299 6.67641 28.4335L5.54841 28.4639C5.44045 28.4639 5.3511 28.3673 5.3511 28.2294C5.35482 28.063 5.33249 27.8947 5.27851 27.7193C5.22453 27.5439 5.15566 27.399 5.07003 27.2844C4.79269 26.9157 4.42413 26.692 3.96251 26.6204C3.50461 26.547 3.08766 26.6436 2.70421 26.9085C2.32449 27.1716 2.0974 27.5225 2.02667 27.9645C1.95966 28.4031 2.0639 28.8111 2.34124 29.1799C2.42687 29.2944 2.54413 29.4018 2.69677 29.502C2.85126 29.6041 3.00203 29.681 3.15653 29.7293C3.3073 29.7759 3.39106 29.8958 3.35197 30.0032Z" fill="#414141"/>
<path d="M7.85479 28.8362C7.94786 28.7378 8.06699 28.7342 8.1675 28.8237L11.0638 31.3832C11.1662 31.4727 11.1699 31.5872 11.0768 31.6839L10.4254 32.364C10.3267 32.4678 10.2206 32.4714 10.1127 32.3765L8.1582 30.6493L7.47321 31.3653L8.95673 32.6772C9.06841 32.7757 9.07958 32.8938 8.97907 32.9976L8.44113 33.5596C8.34806 33.6581 8.22334 33.6563 8.11352 33.5596L6.63 32.2477L5.92639 32.9851L7.88085 34.7123C8.01859 34.834 8.02976 34.9915 7.91249 35.1114L7.30196 35.7504C7.21075 35.8453 7.08976 35.8471 6.98925 35.7576L4.03337 33.148C3.93099 33.0585 3.92354 32.9475 4.01661 32.8491L7.85479 28.8362Z" fill="#414141"/>
<path d="M14.1204 37.2575C14.1129 37.5421 14.0292 37.8088 13.8672 38.0576C13.5601 38.5319 13.1618 38.804 12.6722 38.8756C12.1864 38.9489 11.6559 38.8165 11.0845 38.4728L9.07232 37.2665C8.97925 37.211 8.96249 37.1394 9.01834 37.0535L12.0822 32.3283C12.138 32.2424 12.2125 32.2263 12.3037 32.2817L14.1669 33.3986C14.7123 33.7262 15.0529 34.1056 15.1907 34.5388C15.3284 34.9719 15.2503 35.4176 14.9562 35.8722C14.7198 36.2373 14.3065 36.4772 13.8914 36.4897C14.0515 36.7188 14.1278 36.973 14.1204 37.2575ZM11.7862 37.356C12.1157 37.5547 12.4545 37.4813 12.6555 37.1716C12.8528 36.8673 12.7653 36.5541 12.434 36.3572L11.5889 35.8507L10.9411 36.8495L11.7862 37.356ZM12.7374 34.0823L12.1901 34.9254L12.8882 35.3442C13.1692 35.5124 13.4484 35.4534 13.616 35.1938C13.7835 34.9343 13.7146 34.6694 13.4335 34.5012L12.7374 34.0823Z" fill="#414141"/>
<path d="M16.9647 35.1866C17.0168 35.0631 17.1248 35.0183 17.2532 35.0684L20.9034 36.4771C21.0318 36.5272 21.0784 36.631 21.0262 36.7545L20.6689 37.6118C20.6149 37.7425 20.5162 37.7819 20.3803 37.73L17.9159 36.7795L17.5399 37.6816L19.4106 38.4029C19.5502 38.4566 19.6041 38.564 19.5502 38.6947L19.2542 39.4035C19.2021 39.527 19.0867 39.5681 18.9471 39.5144L17.0764 38.7931L16.6892 39.7221L19.1537 40.6725C19.3287 40.7405 19.3957 40.8819 19.3305 41.0358L18.9936 41.8413C18.9434 41.9612 18.8317 42.0041 18.7032 41.954L14.9786 40.5168C14.8502 40.4666 14.8018 40.3664 14.8539 40.2429L16.9647 35.1866Z" fill="#414141"/>
<path d="M24.4774 37.3451C25.114 37.4793 25.5886 37.7693 25.9013 38.2185C26.214 38.6642 26.3053 39.1886 26.1656 39.7936C26.0298 40.3914 25.7189 40.8281 25.2405 41.1055C24.7622 41.3794 24.2075 41.451 23.569 41.3168L22.8542 41.1664L22.4969 42.7289C22.4671 42.8578 22.3684 42.9205 22.2251 42.89L21.179 42.6699C21.045 42.6412 20.9854 42.5464 21.0133 42.4175L22.2288 37.0963C22.2567 36.9746 22.3628 36.903 22.4894 36.9298L23.0162 37.0408L23.5467 37.1535L24.4774 37.3451ZM23.8035 40.0102C24.012 40.0549 24.2019 40.0245 24.3675 39.9242C24.5369 39.824 24.643 39.6737 24.6896 39.4732C24.7361 39.2727 24.7045 39.0938 24.5946 38.9345C24.4904 38.7716 24.3303 38.6678 24.1218 38.6248L23.4685 38.487L23.1521 39.8741L23.8035 40.0102Z" fill="#414141"/>
<path d="M31.7777 38.1311C31.908 38.1383 31.9899 38.2313 31.9825 38.3548L31.6697 43.7996C31.6623 43.932 31.5785 44.009 31.4408 44L30.3724 43.9427C30.2253 43.9356 30.1471 43.8497 30.1546 43.7172L30.2476 42.0956L29.6259 42.0634L28.6375 43.6707C28.5501 43.8067 28.4942 43.8443 28.3732 43.8371L27.1242 43.7709C26.9902 43.7638 26.9232 43.6313 26.9958 43.5186L28.1741 41.6678C27.597 41.2956 27.2843 40.6709 27.3271 39.9353C27.3625 39.3213 27.5914 38.8381 28.0177 38.4891C28.444 38.1365 28.9856 37.9808 29.6371 38.0148L31.5041 38.1132L31.7777 38.1311ZM30.3202 40.8391L30.404 39.3768L29.6241 39.3357C29.4063 39.3249 29.2239 39.3822 29.0787 39.5075C28.9335 39.6328 28.8535 39.7975 28.8404 40.0069C28.8293 40.2163 28.8888 40.3953 29.0191 40.551C29.1531 40.7031 29.3281 40.7854 29.5403 40.7962L30.3202 40.8391Z" fill="#414141"/>
<path d="M38.3854 37.5529C38.4896 37.5404 38.5492 37.5869 38.5622 37.6907L39.2509 43.2178C39.264 43.3216 39.2156 43.3789 39.1132 43.3914L37.9387 43.5274C37.8344 43.54 37.7749 43.4934 37.7618 43.3896L37.4882 41.1935L35.2173 41.4548L35.4909 43.6509C35.504 43.7548 35.4556 43.812 35.3532 43.8246L34.1824 43.9588C34.0744 43.9713 34.0149 43.9248 34.0018 43.821L33.3131 38.2939C33.3001 38.1901 33.3485 38.1328 33.4564 38.1203L34.6272 37.986C34.7315 37.9735 34.791 38.0201 34.8041 38.1239L35.0554 40.141L37.3263 39.8797L37.075 37.8625C37.0619 37.7587 37.1103 37.7015 37.2127 37.6889L38.3854 37.5529Z" fill="#414141"/>
<path d="M40.2982 38.9776C40.3317 38.5641 40.4396 38.1864 40.6183 37.8464C40.8008 37.5045 41.052 37.1967 41.3741 36.9282C41.6942 36.6561 42.0609 36.4557 42.4779 36.3232C42.8948 36.1908 43.3136 36.1424 43.7362 36.1782C44.1606 36.2087 44.5533 36.3125 44.907 36.4843C45.2644 36.6543 45.5864 36.896 45.8656 37.2092C46.1485 37.517 46.357 37.8696 46.4947 38.2706C46.6771 38.8022 46.7106 39.3337 46.5971 39.86C46.4836 40.388 46.2434 40.8533 45.8656 41.2578C45.4933 41.6606 45.028 41.9469 44.4714 42.1241C44.0545 42.2566 43.6356 42.3049 43.2112 42.2745C42.785 42.2405 42.3922 42.1367 42.0349 41.9666C41.6812 41.7948 41.361 41.555 41.08 41.2489C40.8026 40.9392 40.5923 40.5866 40.4564 40.1893C40.3168 39.7884 40.2665 39.3857 40.2982 38.9776ZM42.718 40.66C43.1256 40.8569 43.5519 40.882 43.9968 40.7406C44.4379 40.601 44.7599 40.3361 44.9665 39.9459C45.1713 39.5539 45.2048 39.1512 45.0577 38.727C44.9107 38.2992 44.6333 37.9896 44.2257 37.7927C43.8181 37.5958 43.3937 37.5654 42.9544 37.705C42.5132 37.8446 42.1875 38.1131 41.9827 38.505C41.778 38.897 41.7463 39.3051 41.8934 39.7311C42.0386 40.1571 42.3122 40.4631 42.718 40.66Z" fill="#414141"/>
<path d="M50.4473 32.7739C50.5478 32.7185 50.6725 32.756 50.7377 32.8634L53.567 37.5815C53.6284 37.6817 53.5949 37.8124 53.4888 37.8697L52.5507 38.3887C52.4464 38.4478 52.318 38.4102 52.2566 38.31L51.3017 36.7188C51.1844 37.1036 50.8978 37.4705 50.4938 37.696C49.8703 38.0415 49.2486 38.131 48.6306 37.9681C48.0108 37.8016 47.51 37.4025 47.1303 36.7689L46.2722 35.337C46.2108 35.2368 46.2387 35.1043 46.3374 35.0506L47.2681 34.5352C47.3835 34.4707 47.5193 34.5029 47.5826 34.6103L48.4389 36.0386C48.7665 36.5845 49.297 36.7224 49.8665 36.4073C50.1532 36.248 50.3282 36.044 50.4045 35.7934C50.4808 35.5428 50.4417 35.2851 50.2854 35.0238L49.4254 33.5883C49.364 33.4881 49.3956 33.3538 49.498 33.2984L50.4473 32.7739Z" fill="#414141"/>
<path d="M59.7314 32.6003C59.8747 32.6343 59.9436 32.7631 59.8356 32.8562L58.8007 33.7458C58.7356 33.8013 58.6574 33.8263 58.5736 33.8156L55.8876 33.1462L55.2455 33.6975L56.7309 35.2958C56.8035 35.3745 56.7997 35.4479 56.7216 35.5142L55.8337 36.2784C55.7518 36.3482 55.6755 36.3446 55.6029 36.2659L51.7498 32.1188C51.6809 32.0436 51.6846 31.9702 51.7647 31.9004L52.6526 31.1362C52.7307 31.0699 52.8071 31.0735 52.8778 31.1487L54.2924 32.6719L54.795 32.2405L54.5586 29.6989C54.5437 29.545 54.5921 29.4823 54.7019 29.3875L55.7276 28.5069C55.843 28.4084 55.9696 28.4836 55.9826 28.6429L56.2599 31.7483L59.7314 32.6003Z" fill="#414141"/>
<path d="M64.3453 26.6723C64.4886 26.7063 64.5463 26.8083 64.4533 26.9372L63.7701 27.8715C63.7031 27.9628 63.5747 28.0003 63.4518 27.9717L62.6366 27.7444L61.4173 29.4107L61.9143 30.0658C61.9907 30.1571 61.9962 30.2896 61.9218 30.3898L61.2405 31.3205C61.1512 31.4422 61.0339 31.4369 60.9446 31.3116L57.5959 26.4217C57.5215 26.3071 57.5252 26.1765 57.5922 26.0852L58.1004 25.3907C58.1674 25.2994 58.3014 25.2565 58.4261 25.2869L64.3453 26.6723ZM60.63 28.3762L61.3559 27.3828L59.4778 26.8548L60.63 28.3762Z" fill="#414141"/>
</svg>
